<svg id="mermaid-1589852829855" width="100%" xmlns="http://www.w3.org/2000/svg" height="3090" style="max-width: 1895.3828125px;" viewBox="-39.273433685302734 0 1895.3828125 3090"><style>#mermaid-1589852829855 .label{font-family:'trebuchet ms', verdana, arial;font-family:var(--mermaid-font-family);color:#333}#mermaid-1589852829855 .label text{fill:#333}#mermaid-1589852829855 .node rect,#mermaid-1589852829855 .node circle,#mermaid-1589852829855 .node ellipse,#mermaid-1589852829855 .node polygon,#mermaid-1589852829855 .node path{fill:#ECECFF;stroke:#9370db;stroke-width:1px}#mermaid-1589852829855 .node .label{text-align:center}#mermaid-1589852829855 .node.clickable{cursor:pointer}#mermaid-1589852829855 .arrowheadPath{fill:#333}#mermaid-1589852829855 .edgePath .path{stroke:#333;stroke-width:1.5px}#mermaid-1589852829855 .edgeLabel{background-color:#e8e8e8;text-align:center}#mermaid-1589852829855 .edgeLabel rect{opacity:0.5}#mermaid-1589852829855 .cluster rect{fill:#ffffde;stroke:#aa3;stroke-width:1px}#mermaid-1589852829855 .cluster text{fill:#333}#mermaid-1589852829855 div.mermaidTooltip{position:absolute;text-align:center;max-width:200px;padding:2px;font-family:'trebuchet ms', verdana, arial;font-family:var(--mermaid-font-family);font-size:12px;background:#ffffde;border:1px solid #aa3;border-radius:2px;pointer-events:none;z-index:100}#mermaid-1589852829855 .actor{stroke:#ccf;fill:#ECECFF}#mermaid-1589852829855 text.actor{fill:#000;stroke:none}#mermaid-1589852829855 .actor-line{stroke:grey}#mermaid-1589852829855 .messageLine0{stroke-width:1.5;stroke-dasharray:'2 2';stroke:#333}#mermaid-1589852829855 .messageLine1{stroke-width:1.5;stroke-dasharray:'2 2';stroke:#333}#mermaid-1589852829855 #arrowhead{fill:#333}#mermaid-1589852829855 .sequenceNumber{fill:#fff}#mermaid-1589852829855 #sequencenumber{fill:#333}#mermaid-1589852829855 #crosshead path{fill:#333 !important;stroke:#333 !important}#mermaid-1589852829855 .messageText{fill:#333;stroke:none}#mermaid-1589852829855 .labelBox{stroke:#ccf;fill:#ECECFF}#mermaid-1589852829855 .labelText{fill:#000;stroke:none}#mermaid-1589852829855 .loopText{fill:#000;stroke:none}#mermaid-1589852829855 .loopLine{stroke-width:2;stroke-dasharray:'2 2';stroke:#ccf}#mermaid-1589852829855 .note{stroke:#aa3;fill:#fff5ad}#mermaid-1589852829855 .noteText{fill:black;stroke:none;font-family:'trebuchet ms', verdana, arial;font-family:var(--mermaid-font-family);font-size:14px}#mermaid-1589852829855 .activation0{fill:#f4f4f4;stroke:#666}#mermaid-1589852829855 .activation1{fill:#f4f4f4;stroke:#666}#mermaid-1589852829855 .activation2{fill:#f4f4f4;stroke:#666}#mermaid-1589852829855 .mermaid-main-font{font-family:"trebuchet ms", verdana, arial;font-family:var(--mermaid-font-family)}#mermaid-1589852829855 .section{stroke:none;opacity:0.2}#mermaid-1589852829855 .section0{fill:rgba(102,102,255,0.49)}#mermaid-1589852829855 .section2{fill:#fff400}#mermaid-1589852829855 .section1,#mermaid-1589852829855 .section3{fill:#fff;opacity:0.2}#mermaid-1589852829855 .sectionTitle0{fill:#333}#mermaid-1589852829855 .sectionTitle1{fill:#333}#mermaid-1589852829855 .sectionTitle2{fill:#333}#mermaid-1589852829855 .sectionTitle3{fill:#333}#mermaid-1589852829855 .sectionTitle{text-anchor:start;font-size:11px;text-height:14px;font-family:'trebuchet ms', verdana, arial;font-family:var(--mermaid-font-family)}#mermaid-1589852829855 .grid .tick{stroke:#d3d3d3;opacity:0.8;shape-rendering:crispEdges}#mermaid-1589852829855 .grid .tick text{font-family:'trebuchet ms', verdana, arial;font-family:var(--mermaid-font-family)}#mermaid-1589852829855 .grid path{stroke-width:0}#mermaid-1589852829855 .today{fill:none;stroke:red;stroke-width:2px}#mermaid-1589852829855 .task{stroke-width:2}#mermaid-1589852829855 .taskText{text-anchor:middle;font-family:'trebuchet ms', verdana, arial;font-family:var(--mermaid-font-family)}#mermaid-1589852829855 .taskText:not([font-size]){font-size:11px}#mermaid-1589852829855 .taskTextOutsideRight{fill:#000;text-anchor:start;font-size:11px;font-family:'trebuchet ms', verdana, arial;font-family:var(--mermaid-font-family)}#mermaid-1589852829855 .taskTextOutsideLeft{fill:#000;text-anchor:end;font-size:11px}#mermaid-1589852829855 .task.clickable{cursor:pointer}#mermaid-1589852829855 .taskText.clickable{cursor:pointer;fill:#003163 !important;font-weight:bold}#mermaid-1589852829855 .taskTextOutsideLeft.clickable{cursor:pointer;fill:#003163 !important;font-weight:bold}#mermaid-1589852829855 .taskTextOutsideRight.clickable{cursor:pointer;fill:#003163 !important;font-weight:bold}#mermaid-1589852829855 .taskText0,#mermaid-1589852829855 .taskText1,#mermaid-1589852829855 .taskText2,#mermaid-1589852829855 .taskText3{fill:#fff}#mermaid-1589852829855 .task0,#mermaid-1589852829855 .task1,#mermaid-1589852829855 .task2,#mermaid-1589852829855 .task3{fill:#8a90dd;stroke:#534fbc}#mermaid-1589852829855 .taskTextOutside0,#mermaid-1589852829855 .taskTextOutside2{fill:#000}#mermaid-1589852829855 .taskTextOutside1,#mermaid-1589852829855 .taskTextOutside3{fill:#000}#mermaid-1589852829855 .active0,#mermaid-1589852829855 .active1,#mermaid-1589852829855 .active2,#mermaid-1589852829855 .active3{fill:#bfc7ff;stroke:#534fbc}#mermaid-1589852829855 .activeText0,#mermaid-1589852829855 .activeText1,#mermaid-1589852829855 .activeText2,#mermaid-1589852829855 .activeText3{fill:#000 !important}#mermaid-1589852829855 .done0,#mermaid-1589852829855 .done1,#mermaid-1589852829855 .done2,#mermaid-1589852829855 .done3{stroke:grey;fill:#d3d3d3;stroke-width:2}#mermaid-1589852829855 .doneText0,#mermaid-1589852829855 .doneText1,#mermaid-1589852829855 .doneText2,#mermaid-1589852829855 .doneText3{fill:#000 !important}#mermaid-1589852829855 .crit0,#mermaid-1589852829855 .crit1,#mermaid-1589852829855 .crit2,#mermaid-1589852829855 .crit3{stroke:#f88;fill:red;stroke-width:2}#mermaid-1589852829855 .activeCrit0,#mermaid-1589852829855 .activeCrit1,#mermaid-1589852829855 .activeCrit2,#mermaid-1589852829855 .activeCrit3{stroke:#f88;fill:#bfc7ff;stroke-width:2}#mermaid-1589852829855 .doneCrit0,#mermaid-1589852829855 .doneCrit1,#mermaid-1589852829855 .doneCrit2,#mermaid-1589852829855 .doneCrit3{stroke:#f88;fill:#d3d3d3;stroke-width:2;cursor:pointer;shape-rendering:crispEdges}#mermaid-1589852829855 .milestone{transform:rotate(45deg) scale(0.8, 0.8)}#mermaid-1589852829855 .milestoneText{font-style:italic}#mermaid-1589852829855 .doneCritText0,#mermaid-1589852829855 .doneCritText1,#mermaid-1589852829855 .doneCritText2,#mermaid-1589852829855 .doneCritText3{fill:#000 !important}#mermaid-1589852829855 .activeCritText0,#mermaid-1589852829855 .activeCritText1,#mermaid-1589852829855 .activeCritText2,#mermaid-1589852829855 .activeCritText3{fill:#000 !important}#mermaid-1589852829855 .titleText{text-anchor:middle;font-size:18px;fill:#000;font-family:'trebuchet ms', verdana, arial;font-family:var(--mermaid-font-family)}#mermaid-1589852829855 g.classGroup text{fill:#9370db;stroke:none;font-family:'trebuchet ms', verdana, arial;font-family:var(--mermaid-font-family);font-size:10px}#mermaid-1589852829855 g.classGroup text .title{font-weight:bolder}#mermaid-1589852829855 g.clickable{cursor:pointer}#mermaid-1589852829855 g.classGroup rect{fill:#ECECFF;stroke:#9370db}#mermaid-1589852829855 g.classGroup line{stroke:#9370db;stroke-width:1}#mermaid-1589852829855 .classLabel .box{stroke:none;stroke-width:0;fill:#ECECFF;opacity:0.5}#mermaid-1589852829855 .classLabel .label{fill:#9370db;font-size:10px}#mermaid-1589852829855 .relation{stroke:#9370db;stroke-width:1;fill:none}#mermaid-1589852829855 .dashed-line{stroke-dasharray:3}#mermaid-1589852829855 #compositionStart{fill:#9370db;stroke:#9370db;stroke-width:1}#mermaid-1589852829855 #compositionEnd{fill:#9370db;stroke:#9370db;stroke-width:1}#mermaid-1589852829855 #aggregationStart{fill:#ECECFF;stroke:#9370db;stroke-width:1}#mermaid-1589852829855 #aggregationEnd{fill:#ECECFF;stroke:#9370db;stroke-width:1}#mermaid-1589852829855 #dependencyStart{fill:#9370db;stroke:#9370db;stroke-width:1}#mermaid-1589852829855 #dependencyEnd{fill:#9370db;stroke:#9370db;stroke-width:1}#mermaid-1589852829855 #extensionStart{fill:#9370db;stroke:#9370db;stroke-width:1}#mermaid-1589852829855 #extensionEnd{fill:#9370db;stroke:#9370db;stroke-width:1}#mermaid-1589852829855 .commit-id,#mermaid-1589852829855 .commit-msg,#mermaid-1589852829855 .branch-label{fill:lightgrey;color:lightgrey;font-family:'trebuchet ms', verdana, arial;font-family:var(--mermaid-font-family)}#mermaid-1589852829855 .pieTitleText{text-anchor:middle;font-size:25px;fill:#000;font-family:'trebuchet ms', verdana, arial;font-family:var(--mermaid-font-family)}#mermaid-1589852829855 .slice{font-family:'trebuchet ms', verdana, arial;font-family:var(--mermaid-font-family)}#mermaid-1589852829855 g.stateGroup text{fill:#9370db;stroke:none;font-size:10px;font-family:'trebuchet ms', verdana, arial;font-family:var(--mermaid-font-family)}#mermaid-1589852829855 g.stateGroup text{fill:#9370db;stroke:none;font-size:10px}#mermaid-1589852829855 g.stateGroup .state-title{font-weight:bolder;fill:#000}#mermaid-1589852829855 g.stateGroup rect{fill:#ECECFF;stroke:#9370db}#mermaid-1589852829855 g.stateGroup line{stroke:#9370db;stroke-width:1}#mermaid-1589852829855 .transition{stroke:#9370db;stroke-width:1;fill:none}#mermaid-1589852829855 .stateGroup .composit{fill:white;border-bottom:1px}#mermaid-1589852829855 .stateGroup .alt-composit{fill:#e0e0e0;border-bottom:1px}#mermaid-1589852829855 .state-note{stroke:#aa3;fill:#fff5ad}#mermaid-1589852829855 .state-note text{fill:black;stroke:none;font-size:10px}#mermaid-1589852829855 .stateLabel .box{stroke:none;stroke-width:0;fill:#ECECFF;opacity:0.5}#mermaid-1589852829855 .stateLabel text{fill:#000;font-size:10px;font-weight:bold;font-family:'trebuchet ms', verdana, arial;font-family:var(--mermaid-font-family)}#mermaid-1589852829855 .node circle.state-start{fill:black;stroke:black}#mermaid-1589852829855 .node circle.state-end{fill:black;stroke:white;stroke-width:1.5}#mermaid-1589852829855 #statediagram-barbEnd{fill:#9370db}#mermaid-1589852829855 .statediagram-cluster rect{fill:#ECECFF;stroke:#9370db;stroke-width:1px}#mermaid-1589852829855 .statediagram-cluster rect.outer{rx:5px;ry:5px}#mermaid-1589852829855 .statediagram-state .divider{stroke:#9370db}#mermaid-1589852829855 .statediagram-state .title-state{rx:5px;ry:5px}#mermaid-1589852829855 .statediagram-cluster.statediagram-cluster .inner{fill:white}#mermaid-1589852829855 .statediagram-cluster.statediagram-cluster-alt .inner{fill:#e0e0e0}#mermaid-1589852829855 .statediagram-cluster .inner{rx:0;ry:0}#mermaid-1589852829855 .statediagram-state rect.basic{rx:5px;ry:5px}#mermaid-1589852829855 .statediagram-state rect.divider{stroke-dasharray:10,10;fill:#efefef}#mermaid-1589852829855 .note-edge{stroke-dasharray:5}#mermaid-1589852829855 .statediagram-note rect{fill:#fff5ad;stroke:#aa3;stroke-width:1px;rx:0;ry:0}:root{--mermaid-font-family: '"trebuchet ms", verdana, arial';--mermaid-font-family: "Comic Sans MS", "Comic Sans", cursive}

:root { --mermaid-font-family: "trebuchet ms", verdana, arial;}</style><style>#mermaid-1589852829855 {
    color: rgb(0, 0, 0);
    font: 16px "trebuchet ms", verdana, arial;
  }</style><g></g><defs><marker id="ONLY_ONE_START" refX="0" refY="9" markerWidth="18" markerHeight="18" orient="auto"><path stroke="gray" fill="none" d="M9,0 L9,18 M15,0 L15,18"></path></marker></defs><defs><marker id="ONLY_ONE_END" refX="18" refY="9" markerWidth="18" markerHeight="18" orient="auto"><path stroke="gray" fill="none" d="M3,0 L3,18 M9,0 L9,18"></path></marker></defs><defs><marker id="ZERO_OR_ONE_START" refX="0" refY="9" markerWidth="30" markerHeight="18" orient="auto"><circle stroke="gray" fill="white" cx="21" cy="9" r="6"></circle><path stroke="gray" fill="none" d="M9,0 L9,18"></path></marker></defs><defs><marker id="ZERO_OR_ONE_END" refX="30" refY="9" markerWidth="30" markerHeight="18" orient="auto"><circle stroke="gray" fill="white" cx="9" cy="9" r="6"></circle><path stroke="gray" fill="none" d="M21,0 L21,18"></path></marker></defs><defs><marker id="ONE_OR_MORE_START" refX="18" refY="18" markerWidth="45" markerHeight="36" orient="auto"><path stroke="gray" fill="none" d="M0,18 Q 18,0 36,18 Q 18,36 0,18 M42,9 L42,27"></path></marker></defs><defs><marker id="ONE_OR_MORE_END" refX="27" refY="18" markerWidth="45" markerHeight="36" orient="auto"><path stroke="gray" fill="none" d="M3,9 L3,27 M9,18 Q27,0 45,18 Q27,36 9,18"></path></marker></defs><defs><marker id="ZERO_OR_MORE_START" refX="18" refY="18" markerWidth="57" markerHeight="36" orient="auto"><circle stroke="gray" fill="white" cx="48" cy="18" r="6"></circle><path stroke="gray" fill="none" d="M0,18 Q18,0 36,18 Q18,36 0,18"></path></marker></defs><defs><marker id="ZERO_OR_MORE_END" refX="39" refY="18" markerWidth="57" markerHeight="36" orient="auto"><circle stroke="gray" fill="white" cx="9" cy="18" r="6"></circle><path stroke="gray" fill="none" d="M21,18 Q39,0 57,18 Q39,36 21,18"></path></marker></defs><path d="M730.63671875,66.11068185836966L806.9850260416666,79.25890154864139C883.3333333333334,92.40712123891312,1036.0299479166667,118.70356061945655,1112.3782552083333,140.1851136430616C1188.7265625,161.66666666666666,1188.7265625,178.33333333333334,1188.7265625,186.66666666666666L1188.7265625,195" stroke="gray" fill="none" marker-end="url(#ONLY_ONE_END)" marker-start="url(#ONE_OR_MORE_START)"></path><path d="M637.5920758928571,95L628.0265997023808,103.33333333333333C618.4611235119047,111.66666666666667,599.3301711309524,128.33333333333334,589.7646949404761,151.25C580.19921875,174.16666666666666,580.19921875,203.33333333333334,580.19921875,232.5C580.19921875,261.6666666666667,580.19921875,290.8333333333333,653.9778645833334,318.1004149526207C727.7565104166666,345.3674965719081,875.3138020833334,370.73499314381615,949.0924479166666,383.41874142977014L1022.87109375,396.1024897157242" stroke="gray" fill="none" marker-end="url(#ONLY_ONE_END)" marker-start="url(#ONE_OR_MORE_START)"></path><path d="M630.63671875,64.88479391809473L540.2311197916666,78.23732826507894C449.8255208333333,91.58986261206314,269.0143229166667,118.29493130603157,178.60872395833334,146.23079898634913C88.203125,174.16666666666666,88.203125,203.33333333333334,88.203125,232.5C88.203125,261.6666666666667,88.203125,290.8333333333333,88.203125,313.75C88.203125,336.6666666666667,88.203125,353.3333333333333,88.203125,361.6666666666667L88.203125,370" stroke="gray" fill="none" marker-end="url(#ONLY_ONE_END)" marker-start="url(#ONE_OR_MORE_START)"></path><path d="M1188.7265625,270L1188.7265625,278.3333333333333C1188.7265625,286.6666666666667,1188.7265625,303.3333333333333,1179.2447916666667,320C1169.7630208333333,336.6666666666667,1150.7994791666667,353.3333333333333,1141.3177083333333,361.6666666666667L1131.8359375,370" stroke="gray" fill="none" stroke-dasharray="8,8" marker-end="url(#ONLY_ONE_END)" marker-start="url(#ONLY_ONE_START)"></path><path d="M73.29352678571429,445L69.98028273809524,453.3333333333333C66.66703869047619,461.6666666666667,60.040550595238095,478.3333333333333,56.727306547619044,501.25C53.4140625,524.1666666666666,53.4140625,553.3333333333334,53.4140625,582.5C53.4140625,611.6666666666666,53.4140625,640.8333333333334,53.4140625,670C53.4140625,699.1666666666666,53.4140625,728.3333333333334,53.4140625,757.5C53.4140625,786.6666666666666,53.4140625,815.8333333333334,53.4140625,845C53.4140625,874.1666666666666,53.4140625,903.3333333333334,53.4140625,932.5C53.4140625,961.6666666666666,53.4140625,990.8333333333334,60.70498511904762,1013.75C67.99590773809524,1036.6666666666667,82.57775297619048,1053.3333333333333,89.86867559523812,1061.6666666666667L97.15959821428572,1070" stroke="gray" fill="none" stroke-dasharray="8,8" marker-end="url(#ONLY_ONE_END)" marker-start="url(#ONE_OR_MORE_START)"></path><path d="M156.40625,422.72406353698517L210.37174479166666,434.7700529474876C264.3372395833333,446.81604235799006,372.2682291666667,470.90802117899506,504.119140625,495.14605881819256C635.9700520833334,519.38409645739,791.7408854166666,543.7681929147799,869.6263020833334,555.9602411434748L947.51171875,568.1522893721698" stroke="gray" fill="none" stroke-dasharray="8,8" marker-end="url(#ONLY_ONE_END)" marker-start="url(#ONLY_ONE_START)"></path><path d="M1089.16796875,445L1089.16796875,453.3333333333333C1089.16796875,461.6666666666667,1089.16796875,478.3333333333333,1084.4060639880952,495C1079.6441592261906,511.6666666666667,1070.120349702381,528.3333333333334,1065.3584449404761,536.6666666666666L1060.5965401785713,545" stroke="gray" fill="none" stroke-dasharray="8,8" marker-end="url(#ONLY_ONE_END)" marker-start="url(#ONLY_ONE_START)"></path><path d="M999.7126116071429,620L990.9447544642858,628.3333333333334C982.1768973214286,636.6666666666666,964.6411830357143,653.3333333333334,955.8733258928572,670C947.10546875,686.6666666666666,947.10546875,703.3333333333334,947.10546875,711.6666666666666L947.10546875,720" stroke="gray" fill="none" marker-end="url(#ONLY_ONE_END)" marker-start="url(#ONLY_ONE_START)"></path><path d="M897.10546875,763.6605821750155L787.0787760416666,777.217151812513C677.0520833333334,790.7737214500103,456.9986979166667,817.8868607250051,346.9720052083333,839.7767636958359C236.9453125,861.6666666666666,236.9453125,878.3333333333334,236.9453125,886.6666666666666L236.9453125,895" stroke="gray" fill="none" marker-end="url(#ONLY_ONE_END)" marker-start="url(#ONLY_ONE_START)"></path><path d="M997.10546875,767.4299583296391L1062.203125,780.3582986080327C1127.30078125,793.2866388864262,1257.49609375,819.143319443213,1327.3556547619048,840.4049930549398C1397.2152157738094,861.6666666666666,1406.739025297619,878.3333333333334,1411.5009300595239,886.6666666666666L1416.2628348214287,895" stroke="gray" fill="none" marker-end="url(#ONLY_ONE_END)" marker-start="url(#ONLY_ONE_START)"></path><path d="M997.10546875,771.8413234992829L1039.6158854166667,784.0344362494025C1082.1263020833333,796.2275489995219,1167.1471354166667,820.613774499761,1209.6575520833333,847.3902205832138C1252.16796875,874.1666666666666,1252.16796875,903.3333333333334,1252.16796875,932.5C1252.16796875,961.6666666666666,1252.16796875,990.8333333333334,1252.16796875,1020C1252.16796875,1049.1666666666667,1252.16796875,1078.3333333333333,1252.16796875,1107.5C1252.16796875,1136.6666666666667,1252.16796875,1165.8333333333333,1261.986793154762,1188.75C1271.8056175595239,1211.6666666666667,1291.4432663690475,1228.3333333333333,1301.2620907738094,1236.6666666666667L1311.0809151785713,1245" stroke="gray" fill="none" marker-end="url(#ONLY_ONE_END)" marker-start="url(#ONLY_ONE_START)"></path><path d="M972.7293526785714,795L978.4235491071428,803.3333333333334C984.1177455357143,811.6666666666666,995.5061383928572,828.3333333333334,1001.2003348214286,851.25C1006.89453125,874.1666666666666,1006.89453125,903.3333333333334,1006.89453125,932.5C1006.89453125,961.6666666666666,1006.89453125,990.8333333333334,1006.89453125,1020C1006.89453125,1049.1666666666667,1006.89453125,1078.3333333333333,1006.89453125,1107.5C1006.89453125,1136.6666666666667,1006.89453125,1165.8333333333333,1006.89453125,1195C1006.89453125,1224.1666666666667,1006.89453125,1253.3333333333333,1006.89453125,1282.5C1006.89453125,1311.6666666666667,1006.89453125,1340.8333333333333,1027.0677083333333,1364.8241523365393C1047.2408854166667,1388.8149713397454,1087.5872395833333,1407.629942679491,1107.7604166666667,1417.0374283493638L1127.93359375,1426.4449140192364" stroke="gray" fill="none" marker-end="url(#ONLY_ONE_END)" marker-start="url(#ONLY_ONE_START)"></path><path d="M929.8722098214286,795L926.0425967261905,803.3333333333334C922.2129836309523,811.6666666666666,914.5537574404761,828.3333333333334,910.7241443452381,851.25C906.89453125,874.1666666666666,906.89453125,903.3333333333334,906.89453125,932.5C906.89453125,961.6666666666666,906.89453125,990.8333333333334,906.89453125,1020C906.89453125,1049.1666666666667,906.89453125,1078.3333333333333,906.89453125,1107.5C906.89453125,1136.6666666666667,906.89453125,1165.8333333333333,906.89453125,1195C906.89453125,1224.1666666666667,906.89453125,1253.3333333333333,906.89453125,1282.5C906.89453125,1311.6666666666667,906.89453125,1340.8333333333333,906.89453125,1370C906.89453125,1399.1666666666667,906.89453125,1428.3333333333333,906.89453125,1457.5C906.89453125,1486.6666666666667,906.89453125,1515.8333333333333,906.89453125,1545C906.89453125,1574.1666666666667,906.89453125,1603.3333333333333,906.89453125,1632.5C906.89453125,1661.6666666666667,906.89453125,1690.8333333333333,920.9406622023808,1713.75C934.9867931547619,1736.6666666666667,963.0790550595239,1753.3333333333333,977.1251860119047,1761.6666666666667L991.1713169642857,1770" stroke="gray" fill="none" marker-end="url(#ONLY_ONE_END)" marker-start="url(#ONLY_ONE_START)"></path><path d="M897.10546875,772.9389060432289L858.2096354166666,784.9490883693575C819.3138020833334,796.959270695486,741.5221354166666,820.979635347743,702.6263020833334,847.5731510072047C663.73046875,874.1666666666666,663.73046875,903.3333333333334,663.73046875,932.5C663.73046875,961.6666666666666,663.73046875,990.8333333333334,663.73046875,1020C663.73046875,1049.1666666666667,663.73046875,1078.3333333333333,663.73046875,1107.5C663.73046875,1136.6666666666667,663.73046875,1165.8333333333333,663.73046875,1195C663.73046875,1224.1666666666667,663.73046875,1253.3333333333333,663.73046875,1282.5C663.73046875,1311.6666666666667,663.73046875,1340.8333333333333,663.73046875,1370C663.73046875,1399.1666666666667,663.73046875,1428.3333333333333,663.73046875,1457.5C663.73046875,1486.6666666666667,663.73046875,1515.8333333333333,663.73046875,1545C663.73046875,1574.1666666666667,663.73046875,1603.3333333333333,663.73046875,1632.5C663.73046875,1661.6666666666667,663.73046875,1690.8333333333333,663.73046875,1720C663.73046875,1749.1666666666667,663.73046875,1778.3333333333333,663.73046875,1807.5C663.73046875,1836.6666666666667,663.73046875,1865.8333333333333,675.6854538690476,1888.75C687.6404389880953,1911.6666666666667,711.5504092261905,1928.3333333333333,723.5053943452381,1936.6666666666667L735.4603794642857,1945" stroke="gray" fill="none" marker-end="url(#ONLY_ONE_END)" marker-start="url(#ONLY_ONE_START)"></path><path d="M897.10546875,768.9118030648842L841.54296875,781.5931692207369C785.98046875,794.2745353765895,674.85546875,819.6372676882947,619.29296875,846.9019671774807C563.73046875,874.1666666666666,563.73046875,903.3333333333334,563.73046875,932.5C563.73046875,961.6666666666666,563.73046875,990.8333333333334,563.73046875,1020C563.73046875,1049.1666666666667,563.73046875,1078.3333333333333,563.73046875,1107.5C563.73046875,1136.6666666666667,563.73046875,1165.8333333333333,563.73046875,1195C563.73046875,1224.1666666666667,563.73046875,1253.3333333333333,563.73046875,1282.5C563.73046875,1311.6666666666667,563.73046875,1340.8333333333333,563.73046875,1370C563.73046875,1399.1666666666667,563.73046875,1428.3333333333333,563.73046875,1457.5C563.73046875,1486.6666666666667,563.73046875,1515.8333333333333,563.73046875,1545C563.73046875,1574.1666666666667,563.73046875,1603.3333333333333,563.73046875,1632.5C563.73046875,1661.6666666666667,563.73046875,1690.8333333333333,563.73046875,1720C563.73046875,1749.1666666666667,563.73046875,1778.3333333333333,563.73046875,1807.5C563.73046875,1836.6666666666667,563.73046875,1865.8333333333333,563.73046875,1895C563.73046875,1924.1666666666667,563.73046875,1953.3333333333333,563.73046875,1982.5C563.73046875,2011.6666666666667,563.73046875,2040.8333333333333,573.2542782738095,2063.75C582.778087797619,2086.6666666666665,601.8257068452381,2103.3333333333335,611.3495163690476,2111.6666666666665L620.8733258928571,2120" stroke="gray" fill="none" marker-end="url(#ONLY_ONE_END)" marker-start="url(#ONLY_ONE_START)"></path><path d="M897.10546875,765.8075576522249L817.6673177083334,779.0062980435208C738.2291666666666,792.2050384348166,579.3528645833334,818.6025192174084,499.9147135416667,846.3845929420376C420.4765625,874.1666666666666,420.4765625,903.3333333333334,420.4765625,932.5C420.4765625,961.6666666666666,420.4765625,990.8333333333334,420.4765625,1020C420.4765625,1049.1666666666667,420.4765625,1078.3333333333333,420.4765625,1107.5C420.4765625,1136.6666666666667,420.4765625,1165.8333333333333,420.4765625,1195C420.4765625,1224.1666666666667,420.4765625,1253.3333333333333,420.4765625,1282.5C420.4765625,1311.6666666666667,420.4765625,1340.8333333333333,420.4765625,1370C420.4765625,1399.1666666666667,420.4765625,1428.3333333333333,420.4765625,1457.5C420.4765625,1486.6666666666667,420.4765625,1515.8333333333333,420.4765625,1545C420.4765625,1574.1666666666667,420.4765625,1603.3333333333333,420.4765625,1632.5C420.4765625,1661.6666666666667,420.4765625,1690.8333333333333,420.4765625,1720C420.4765625,1749.1666666666667,420.4765625,1778.3333333333333,420.4765625,1807.5C420.4765625,1836.6666666666667,420.4765625,1865.8333333333333,420.4765625,1895C420.4765625,1924.1666666666667,420.4765625,1953.3333333333333,420.4765625,1982.5C420.4765625,2011.6666666666667,420.4765625,2040.8333333333333,420.4765625,2070C420.4765625,2099.1666666666665,420.4765625,2128.3333333333335,420.4765625,2157.5C420.4765625,2186.6666666666665,420.4765625,2215.8333333333335,434.7622767857143,2238.75C449.0479910714286,2261.6666666666665,477.61941964285717,2278.3333333333335,491.9051339285715,2286.6666666666665L506.1908482142857,2295" stroke="gray" fill="none" marker-end="url(#ONLY_ONE_END)" marker-start="url(#ONLY_ONE_START)"></path><path d="M997.10546875,763.9708465253865L1101.45703125,777.4757054378221C1205.80859375,790.9805643502577,1414.51171875,817.9902821751289,1518.86328125,846.0784744208977C1623.21484375,874.1666666666666,1623.21484375,903.3333333333334,1623.21484375,932.5C1623.21484375,961.6666666666666,1623.21484375,990.8333333333334,1623.21484375,1020C1623.21484375,1049.1666666666667,1623.21484375,1078.3333333333333,1623.21484375,1107.5C1623.21484375,1136.6666666666667,1623.21484375,1165.8333333333333,1623.21484375,1195C1623.21484375,1224.1666666666667,1623.21484375,1253.3333333333333,1623.21484375,1282.5C1623.21484375,1311.6666666666667,1623.21484375,1340.8333333333333,1623.21484375,1370C1623.21484375,1399.1666666666667,1623.21484375,1428.3333333333333,1623.21484375,1457.5C1623.21484375,1486.6666666666667,1623.21484375,1515.8333333333333,1623.21484375,1545C1623.21484375,1574.1666666666667,1623.21484375,1603.3333333333333,1623.21484375,1632.5C1623.21484375,1661.6666666666667,1623.21484375,1690.8333333333333,1623.21484375,1720C1623.21484375,1749.1666666666667,1623.21484375,1778.3333333333333,1623.21484375,1807.5C1623.21484375,1836.6666666666667,1623.21484375,1865.8333333333333,1623.21484375,1895C1623.21484375,1924.1666666666667,1623.21484375,1953.3333333333333,1623.21484375,1982.5C1623.21484375,2011.6666666666667,1623.21484375,2040.8333333333333,1623.21484375,2070C1623.21484375,2099.1666666666665,1623.21484375,2128.3333333333335,1623.21484375,2157.5C1623.21484375,2186.6666666666665,1623.21484375,2215.8333333333335,1627.9767485119048,2238.75C1632.7386532738094,2261.6666666666665,1642.262462797619,2278.3333333333335,1647.0243675595239,2286.6666666666665L1651.7862723214287,2295" stroke="gray" fill="none" marker-end="url(#ONLY_ONE_END)" marker-start="url(#ONLY_ONE_START)"></path><path d="M236.9453125,970L236.9453125,978.3333333333334C236.9453125,986.6666666666666,236.9453125,1003.3333333333334,226.75706845238096,1020C216.56882440476193,1036.6666666666667,196.19233630952382,1053.3333333333333,186.0040922619048,1061.6666666666667L175.81584821428572,1070" stroke="gray" fill="none" marker-end="url(#ONE_OR_MORE_END)" marker-start="url(#ONLY_ONE_START)"></path><path d="M1130.82421875,600.3807197227012L1190.3020833333333,611.983933102251C1249.7799479166667,623.5871464818008,1368.7356770833333,646.7935732409004,1428.2135416666667,672.9801199537835C1487.69140625,699.1666666666666,1487.69140625,728.3333333333334,1487.69140625,757.5C1487.69140625,786.6666666666666,1487.69140625,815.8333333333334,1482.9295014880952,838.75C1478.1675967261906,861.6666666666666,1468.643787202381,878.3333333333334,1463.8818824404761,886.6666666666666L1459.1199776785713,895" stroke="gray" fill="none" stroke-dasharray="8,8" marker-end="url(#ONLY_ONE_END)" marker-start="url(#ONLY_ONE_START)"></path><path d="M1074.712611607143,620L1082.6114211309525,628.3333333333334C1090.510230654762,636.6666666666666,1106.307849702381,653.3333333333334,1114.2066592261906,676.25C1122.10546875,699.1666666666666,1122.10546875,728.3333333333334,1122.10546875,757.5C1122.10546875,786.6666666666666,1122.10546875,815.8333333333334,1122.10546875,845C1122.10546875,874.1666666666666,1122.10546875,903.3333333333334,1122.10546875,932.5C1122.10546875,961.6666666666666,1122.10546875,990.8333333333334,1122.10546875,1020C1122.10546875,1049.1666666666667,1122.10546875,1078.3333333333333,1122.10546875,1107.5C1122.10546875,1136.6666666666667,1122.10546875,1165.8333333333333,1122.10546875,1195C1122.10546875,1224.1666666666667,1122.10546875,1253.3333333333333,1122.10546875,1282.5C1122.10546875,1311.6666666666667,1122.10546875,1340.8333333333333,1129.0027901785713,1363.75C1135.900111607143,1386.6666666666667,1149.6947544642858,1403.3333333333333,1156.592075892857,1411.6666666666667L1163.4893973214287,1420" stroke="gray" fill="none" stroke-dasharray="8,8" marker-end="url(#ONLY_ONE_END)" marker-start="url(#ONLY_ONE_START)"></path><path d="M947.51171875,611.6170297254369L916.8815104166666,621.3475247711973C886.2513020833334,631.0780198169579,824.9908854166666,650.539009908479,794.3606770833334,674.8528382875728C763.73046875,699.1666666666666,763.73046875,728.3333333333334,763.73046875,757.5C763.73046875,786.6666666666666,763.73046875,815.8333333333334,763.73046875,845C763.73046875,874.1666666666666,763.73046875,903.3333333333334,763.73046875,932.5C763.73046875,961.6666666666666,763.73046875,990.8333333333334,763.73046875,1020C763.73046875,1049.1666666666667,763.73046875,1078.3333333333333,763.73046875,1107.5C763.73046875,1136.6666666666667,763.73046875,1165.8333333333333,763.73046875,1195C763.73046875,1224.1666666666667,763.73046875,1253.3333333333333,763.73046875,1282.5C763.73046875,1311.6666666666667,763.73046875,1340.8333333333333,763.73046875,1370C763.73046875,1399.1666666666667,763.73046875,1428.3333333333333,763.73046875,1457.5C763.73046875,1486.6666666666667,763.73046875,1515.8333333333333,763.73046875,1545C763.73046875,1574.1666666666667,763.73046875,1603.3333333333333,763.73046875,1632.5C763.73046875,1661.6666666666667,763.73046875,1690.8333333333333,763.73046875,1720C763.73046875,1749.1666666666667,763.73046875,1778.3333333333333,763.73046875,1807.5C763.73046875,1836.6666666666667,763.73046875,1865.8333333333333,766.1616443452381,1888.75C768.5928199404761,1911.6666666666667,773.4551711309523,1928.3333333333333,775.8863467261905,1936.6666666666667L778.3175223214286,1945" stroke="gray" fill="none" stroke-dasharray="8,8" marker-end="url(#ONLY_ONE_END)" marker-start="url(#ONLY_ONE_START)"></path><path d="M1437.69140625,970L1437.69140625,978.3333333333334C1437.69140625,986.6666666666666,1437.69140625,1003.3333333333334,1437.69140625,1020C1437.69140625,1036.6666666666667,1437.69140625,1053.3333333333333,1437.69140625,1061.6666666666667L1437.69140625,1070" stroke="gray" fill="none" marker-end="url(#ONLY_ONE_END)" marker-start="url(#ONLY_ONE_START)"></path><path d="M1437.69140625,1145L1437.69140625,1153.3333333333333C1437.69140625,1161.6666666666667,1437.69140625,1178.3333333333333,1429.8413318452383,1195C1421.9912574404761,1211.6666666666667,1406.2911086309523,1228.3333333333333,1398.4410342261906,1236.6666666666667L1390.5909598214287,1245" stroke="gray" fill="none" marker-end="url(#ONLY_ONE_END)" marker-start="url(#ONLY_ONE_START)"></path><path d="M1355.265625,1320L1355.265625,1328.3333333333333C1355.265625,1336.6666666666667,1355.265625,1353.3333333333333,1339.5748697916667,1370.2081358801752C1323.8841145833333,1387.0829384270173,1292.5026041666667,1404.1658768540347,1276.8118489583333,1412.707346067543L1261.12109375,1421.2488152810517" stroke="gray" fill="none" marker-end="url(#ONLY_ONE_END)" marker-start="url(#ONLY_ONE_START)"></path><path d="M1194.52734375,1495L1194.52734375,1503.3333333333333C1194.52734375,1511.6666666666667,1194.52734375,1528.3333333333333,1194.52734375,1545C1194.52734375,1561.6666666666667,1194.52734375,1578.3333333333333,1194.52734375,1586.6666666666667L1194.52734375,1595" stroke="gray" fill="none" marker-end="url(#ONLY_ONE_END)" marker-start="url(#ONLY_ONE_START)"></path><path d="M1194.52734375,1670L1194.52734375,1678.3333333333333C1194.52734375,1686.6666666666667,1194.52734375,1703.3333333333333,1181.1798735119048,1720C1167.8324032738094,1736.6666666666667,1141.137462797619,1753.3333333333333,1127.7899925595239,1761.6666666666667L1114.4425223214287,1770" stroke="gray" fill="none" marker-end="url(#ONLY_ONE_END)" marker-start="url(#ONLY_ONE_START)"></path><path d="M1054.37890625,1845L1054.37890625,1853.3333333333333C1054.37890625,1861.6666666666667,1054.37890625,1878.3333333333333,1020.9498697916666,1897.6995145201927C987.5208333333334,1917.065695707052,920.6627604166666,1939.131391414104,887.2337239583334,1950.1642392676301L853.8046875,1961.1970871211563" stroke="gray" fill="none" marker-end="url(#ONLY_ONE_END)" marker-start="url(#ONLY_ONE_START)"></path><path d="M789.2578125,2020L789.2578125,2028.3333333333333C789.2578125,2036.6666666666667,789.2578125,2053.3333333333335,777.3028273809524,2070C765.3478422619047,2086.6666666666665,741.4378720238095,2103.3333333333335,729.4828869047619,2111.6666666666665L717.5279017857143,2120" stroke="gray" fill="none" marker-end="url(#ONLY_ONE_END)" marker-start="url(#ONLY_ONE_START)"></path><path d="M663.73046875,2195L663.73046875,2203.3333333333335C663.73046875,2211.6666666666665,663.73046875,2228.3333333333335,654.8491443452381,2245C645.9678199404761,2261.6666666666665,628.2051711309524,2278.3333333333335,619.3238467261905,2286.6666666666665L610.4425223214286,2295" stroke="gray" fill="none" marker-end="url(#ONLY_ONE_END)" marker-start="url(#ONLY_ONE_START)"></path><path d="M750.23828125,2164.6444504254723L912.4010416666666,2178.037042021227C1074.5638020833333,2191.4296336169814,1398.8893229166667,2218.214816808491,1556.2901785714284,2239.9407417375787C1713.6910342261906,2261.6666666666665,1704.167224702381,2278.3333333333335,1699.4053199404761,2286.6666666666665L1694.6434151785713,2295" stroke="gray" fill="none" marker-end="url(#ONLY_ONE_END)" marker-start="url(#ONLY_ONE_START)"></path><path d="M640.5390625,2349.7605692666402L688.0572916666666,2361.4671410555334C735.5755208333334,2373.173712844427,830.6119791666666,2396.5868564222133,888.09375,2416.62676154444C945.5755208333334,2436.6666666666665,965.5026041666666,2453.3333333333335,975.4661458333334,2461.6666666666665L985.4296875,2470" stroke="gray" fill="none" stroke-dasharray="8,8" marker-end="url(#ONLY_ONE_END)" marker-start="url(#ONLY_ONE_START)"></path><path d="M1630.04296875,2370L1620.44921875,2378.3333333333335C1610.85546875,2386.6666666666665,1591.66796875,2403.3333333333335,1500.0384114583333,2424.905207110112C1408.4088541666667,2446.4770808868907,1244.3372395833333,2472.954161773782,1162.3014322916667,2486.192702217227L1080.265625,2499.4312426606725" stroke="gray" fill="none" stroke-dasharray="8,8" marker-end="url(#ONLY_ONE_END)" marker-start="url(#ONLY_ONE_START)"></path><path d="M504.21205357142856,2370L489.4866071428571,2378.3333333333335C474.7611607142857,2386.6666666666665,445.31026785714283,2403.3333333333335,430.5848214285714,2420C415.859375,2436.6666666666665,415.859375,2453.3333333333335,415.859375,2461.6666666666665L415.859375,2470" stroke="gray" fill="none" marker-end="url(#ONLY_ONE_END)" marker-start="url(#ONLY_ONE_START)"></path><path d="M415.859375,2545L415.859375,2553.3333333333335C415.859375,2561.6666666666665,415.859375,2578.3333333333335,425.8229166666667,2595C435.7864583333333,2611.6666666666665,455.7135416666667,2628.3333333333335,465.6770833333333,2636.6666666666665L475.640625,2645" stroke="gray" fill="none" marker-end="url(#ONLY_ONE_END)" marker-start="url(#ONLY_ONE_START)"></path><path d="M640.5390625,2338.063019073917L812.529296875,2351.719182561598C984.51953125,2365.375346049278,1328.5,2392.687673024639,1505.3220796130952,2414.6771698456528C1682.1441592261906,2436.6666666666665,1691.807849702381,2453.3333333333335,1696.6396949404761,2461.6666666666665L1701.4715401785713,2470" stroke="gray" fill="none" stroke-dasharray="8,8" marker-end="url(#ONLY_ONE_END)" marker-start="url(#ONLY_ONE_START)"></path><path d="M1716.071986607143,2370L1725.5957961309523,2378.3333333333335C1735.1196056547622,2386.6666666666665,1754.167224702381,2403.3333333333335,1758.9291294642856,2420C1763.6910342261906,2436.6666666666665,1754.167224702381,2453.3333333333335,1749.4053199404761,2461.6666666666665L1744.6434151785713,2470" stroke="gray" fill="none" stroke-dasharray="8,8" marker-end="url(#ONLY_ONE_END)" marker-start="url(#ONLY_ONE_START)"></path><path d="M1030.265625,2545L1030.265625,2553.3333333333335C1030.265625,2561.6666666666665,1030.265625,2578.3333333333335,953.6341145833334,2599.8196698491515C877.0026041666666,2621.306006364969,723.7395833333334,2647.612012729938,647.1080729166666,2660.7650159124228L570.4765625,2673.9180190949073" stroke="gray" fill="none" marker-end="url(#ZERO_OR_MORE_END)" marker-start="url(#ONLY_ONE_START)"></path><path d="M499.04799107142856,2720L494.2860863095238,2728.3333333333335C489.52418154761904,2736.6666666666665,480.00037202380946,2753.3333333333335,475.23846726190476,2770C470.4765625,2786.6666666666665,470.4765625,2803.3333333333335,470.4765625,2811.6666666666665L470.4765625,2820" stroke="gray" fill="none" marker-end="url(#ONE_OR_MORE_END)" marker-start="url(#ONE_OR_MORE_START)"></path><path d="M570.4765625,2686.6587298050968L737.4772135416666,2700.548941504247C904.4778645833334,2714.439153203398,1238.4791666666667,2742.219576601699,1415.0735677083333,2764.4431216341823C1591.66796875,2786.6666666666665,1610.85546875,2803.3333333333335,1620.44921875,2811.6666666666665L1630.04296875,2820" stroke="gray" fill="none" marker-end="url(#ONE_OR_MORE_END)" marker-start="url(#ONE_OR_MORE_START)"></path><path d="M1723.21484375,2545L1723.21484375,2553.3333333333335C1723.21484375,2561.6666666666665,1723.21484375,2578.3333333333335,1723.21484375,2601.25C1723.21484375,2624.1666666666665,1723.21484375,2653.3333333333335,1723.21484375,2682.5C1723.21484375,2711.6666666666665,1723.21484375,2740.8333333333335,1718.4529389880952,2763.75C1713.6910342261906,2786.6666666666665,1704.167224702381,2803.3333333333335,1699.4053199404761,2811.6666666666665L1694.6434151785713,2820" stroke="gray" fill="none" stroke-dasharray="8,8" marker-end="url(#ONE_OR_MORE_END)" marker-start="url(#ONLY_ONE_START)"></path><path d="M470.4765625,2895L470.4765625,2903.3333333333335C470.4765625,2911.6666666666665,470.4765625,2928.3333333333335,555.5638020833334,2949.949132600201C640.6510416666666,2971.56493186707,810.8255208333334,2998.12986373414,895.9127604166666,3011.412329667675L981,3024.69479560121" stroke="gray" fill="none" stroke-dasharray="8,8" marker-end="url(#ONE_OR_MORE_END)" marker-start="url(#ONE_OR_MORE_START)"></path><path d="M1673.21484375,2895L1673.21484375,2903.3333333333335C1673.21484375,2911.6666666666665,1673.21484375,2928.3333333333335,1574.5123697916667,2950.1146063326582C1475.8098958333333,2971.895879331983,1278.4049479166667,2998.7917586639655,1179.7024739583333,3012.2396983299573L1081,3025.687637995949" stroke="gray" fill="none" stroke-dasharray="8,8" marker-end="url(#ONE_OR_MORE_END)" marker-start="url(#ONE_OR_MORE_START)"></path><g id="GITHUB" transform="translate(630.63671875,20 )"><rect fill="honeydew" fill-opacity="100%" stroke="gray" x="0" y="0" width="100" height="75"></rect><text id="entity-GITHUB" x="0" y="0" dominant-baseline="middle" text-anchor="middle" style="font-family: &quot;trebuchet ms&quot;, verdana, arial;; font-size: 12px" transform="translate(50,37.5)">GITHUB</text></g><g id="CRAFTER-GIT-REPO" transform="translate(1122.6328125,195 )"><rect fill="honeydew" fill-opacity="100%" stroke="gray" x="0" y="0" width="132.1875" height="75"></rect><text id="entity-CRAFTER-GIT-REPO" x="0" y="0" dominant-baseline="middle" text-anchor="middle" style="font-family: &quot;trebuchet ms&quot;, verdana, arial;; font-size: 12px" transform="translate(66.09375,37.5)">CRAFTER-GIT-REPO</text></g><g id="ITD-CRAFTER-REPO" transform="translate(1022.87109375,370 )"><rect fill="honeydew" fill-opacity="100%" stroke="gray" x="0" y="0" width="132.59375" height="75"></rect><text id="entity-ITD-CRAFTER-REPO" x="0" y="0" dominant-baseline="middle" text-anchor="middle" style="font-family: &quot;trebuchet ms&quot;, verdana, arial;; font-size: 12px" transform="translate(66.296875,37.5)">ITD-CRAFTER-REPO</text></g><g id="SITE-PROJECT-REPO" transform="translate(20,370 )"><rect fill="honeydew" fill-opacity="100%" stroke="gray" x="0" y="0" width="136.40625" height="75"></rect><text id="entity-SITE-PROJECT-REPO" x="0" y="0" dominant-baseline="middle" text-anchor="middle" style="font-family: &quot;trebuchet ms&quot;, verdana, arial;; font-size: 12px" transform="translate(68.203125,37.5)">SITE-PROJECT-REPO</text></g><g id="LOCAL-DOCKER-DEV" transform="translate(60.9453125,1070 )"><rect fill="honeydew" fill-opacity="100%" stroke="gray" x="0" y="0" width="138.046875" height="75"></rect><text id="entity-LOCAL-DOCKER-DEV" x="0" y="0" dominant-baseline="middle" text-anchor="middle" style="font-family: &quot;trebuchet ms&quot;, verdana, arial;; font-size: 12px" transform="translate(69.0234375,37.5)">LOCAL-DOCKER-DEV</text></g><g id="ITD-CRAFTER-REPO-ACTIONS" transform="translate(947.51171875,545 )"><rect fill="honeydew" fill-opacity="100%" stroke="gray" x="0" y="0" width="183.3125" height="75"></rect><text id="entity-ITD-CRAFTER-REPO-ACTIONS" x="0" y="0" dominant-baseline="middle" text-anchor="middle" style="font-family: &quot;trebuchet ms&quot;, verdana, arial;; font-size: 12px" transform="translate(91.65625,37.5)">ITD-CRAFTER-REPO-ACTIONS</text></g><g id="JENKINS" transform="translate(897.10546875,720 )"><rect fill="honeydew" fill-opacity="100%" stroke="gray" x="0" y="0" width="100" height="75"></rect><text id="entity-JENKINS" x="0" y="0" dominant-baseline="middle" text-anchor="middle" style="font-family: &quot;trebuchet ms&quot;, verdana, arial;; font-size: 12px" transform="translate(50,37.5)">JENKINS</text></g><g id="DOCKER-IMAGE-REGISTRY" transform="translate(153.4140625,895 )"><rect fill="honeydew" fill-opacity="100%" stroke="gray" x="0" y="0" width="167.0625" height="75"></rect><text id="entity-DOCKER-IMAGE-REGISTRY" x="0" y="0" dominant-baseline="middle" text-anchor="middle" style="font-family: &quot;trebuchet ms&quot;, verdana, arial;; font-size: 12px" transform="translate(83.53125,37.5)">DOCKER-IMAGE-REGISTRY</text></g><g id="DEV-STUDIO-VM1" transform="translate(1377.72265625,895 )"><rect fill="honeydew" fill-opacity="100%" stroke="gray" x="0" y="0" width="119.9375" height="75"></rect><text id="entity-DEV-STUDIO-VM1" x="0" y="0" dominant-baseline="middle" text-anchor="middle" style="font-family: &quot;trebuchet ms&quot;, verdana, arial;; font-size: 12px" transform="translate(59.96875,37.5)">DEV-STUDIO-VM1</text></g><g id="DEV-ENGINE-VM1" transform="translate(1295.140625,1245 )"><rect fill="honeydew" fill-opacity="100%" stroke="gray" x="0" y="0" width="120.25" height="75"></rect><text id="entity-DEV-ENGINE-VM1" x="0" y="0" dominant-baseline="middle" text-anchor="middle" style="font-family: &quot;trebuchet ms&quot;, verdana, arial;; font-size: 12px" transform="translate(60.125,37.5)">DEV-ENGINE-VM1</text></g><g id="STAGE-STUDIO-VM1" transform="translate(1127.93359375,1420 )"><rect fill="honeydew" fill-opacity="100%" stroke="gray" x="0" y="0" width="133.1875" height="75"></rect><text id="entity-STAGE-STUDIO-VM1" x="0" y="0" dominant-baseline="middle" text-anchor="middle" style="font-family: &quot;trebuchet ms&quot;, verdana, arial;; font-size: 12px" transform="translate(66.59375,37.5)">STAGE-STUDIO-VM1</text></g><g id="STAGE-ENGINE-VM1" transform="translate(987.62890625,1770 )"><rect fill="honeydew" fill-opacity="100%" stroke="gray" x="0" y="0" width="133.5" height="75"></rect><text id="entity-STAGE-ENGINE-VM1" x="0" y="0" dominant-baseline="middle" text-anchor="middle" style="font-family: &quot;trebuchet ms&quot;, verdana, arial;; font-size: 12px" transform="translate(66.75,37.5)">STAGE-ENGINE-VM1</text></g><g id="PROD-STUDIO-VM2" transform="translate(724.7109375,1945 )"><rect fill="honeydew" fill-opacity="100%" stroke="gray" x="0" y="0" width="129.09375" height="75"></rect><text id="entity-PROD-STUDIO-VM2" x="0" y="0" dominant-baseline="middle" text-anchor="middle" style="font-family: &quot;trebuchet ms&quot;, verdana, arial;; font-size: 12px" transform="translate(64.546875,37.5)">PROD-STUDIO-VM2</text></g><g id="NODEJS-SSR-MONGO-PROD" transform="translate(577.22265625,2120 )"><rect fill="honeydew" fill-opacity="100%" stroke="gray" x="0" y="0" width="173.015625" height="75"></rect><text id="entity-NODEJS-SSR-MONGO-PROD" x="0" y="0" dominant-baseline="middle" text-anchor="middle" style="font-family: &quot;trebuchet ms&quot;, verdana, arial;; font-size: 12px" transform="translate(86.5078125,37.5)">NODEJS-SSR-MONGO-PROD</text></g><g id="PROD-ENGINE-1-VM3" transform="translate(500.4140625,2295 )"><rect fill="honeydew" fill-opacity="100%" stroke="gray" x="0" y="0" width="140.125" height="75"></rect><text id="entity-PROD-ENGINE-1-VM3" x="0" y="0" dominant-baseline="middle" text-anchor="middle" style="font-family: &quot;trebuchet ms&quot;, verdana, arial;; font-size: 12px" transform="translate(70.0625,37.5)">PROD-ENGINE-1-VM3</text></g><g id="PROD-ENGINE-2-VM4" transform="translate(1602.80078125,2295 )"><rect fill="honeydew" fill-opacity="100%" stroke="gray" x="0" y="0" width="140.828125" height="75"></rect><text id="entity-PROD-ENGINE-2-VM4" x="0" y="0" dominant-baseline="middle" text-anchor="middle" style="font-family: &quot;trebuchet ms&quot;, verdana, arial;; font-size: 12px" transform="translate(70.4140625,37.5)">PROD-ENGINE-2-VM4</text></g><g id="NODEJS-MONGO-DEV" transform="translate(1366.64453125,1070 )"><rect fill="honeydew" fill-opacity="100%" stroke="gray" x="0" y="0" width="142.09375" height="75"></rect><text id="entity-NODEJS-MONGO-DEV" x="0" y="0" dominant-baseline="middle" text-anchor="middle" style="font-family: &quot;trebuchet ms&quot;, verdana, arial;; font-size: 12px" transform="translate(71.046875,37.5)">NODEJS-MONGO-DEV</text></g><g id="NODEJS-MONGO-STAGE" transform="translate(1117.48828125,1595 )"><rect fill="honeydew" fill-opacity="100%" stroke="gray" x="0" y="0" width="154.078125" height="75"></rect><text id="entity-NODEJS-MONGO-STAGE" x="0" y="0" dominant-baseline="middle" text-anchor="middle" style="font-family: &quot;trebuchet ms&quot;, verdana, arial;; font-size: 12px" transform="translate(77.0390625,37.5)">NODEJS-MONGO-STAGE</text></g><g id="NGINX" transform="translate(980.265625,2470 )"><rect fill="honeydew" fill-opacity="100%" stroke="gray" x="0" y="0" width="100" height="75"></rect><text id="entity-NGINX" x="0" y="0" dominant-baseline="middle" text-anchor="middle" style="font-family: &quot;trebuchet ms&quot;, verdana, arial;; font-size: 12px" transform="translate(50,37.5)">NGINX</text></g><g id="STATIC-FILE-CDN" transform="translate(356.625,2470 )"><rect fill="honeydew" fill-opacity="100%" stroke="gray" x="0" y="0" width="118.46875" height="75"></rect><text id="entity-STATIC-FILE-CDN" x="0" y="0" dominant-baseline="middle" text-anchor="middle" style="font-family: &quot;trebuchet ms&quot;, verdana, arial;; font-size: 12px" transform="translate(59.234375,37.5)">STATIC-FILE-CDN</text></g><g id="BROWSER" transform="translate(470.4765625,2645 )"><rect fill="honeydew" fill-opacity="100%" stroke="gray" x="0" y="0" width="100" height="75"></rect><text id="entity-BROWSER" x="0" y="0" dominant-baseline="middle" text-anchor="middle" style="font-family: &quot;trebuchet ms&quot;, verdana, arial;; font-size: 12px" transform="translate(50,37.5)">BROWSER</text></g><g id="API-GATEWAY" transform="translate(1671.74609375,2470 )"><rect fill="honeydew" fill-opacity="100%" stroke="gray" x="0" y="0" width="102.9375" height="75"></rect><text id="entity-API-GATEWAY" x="0" y="0" dominant-baseline="middle" text-anchor="middle" style="font-family: &quot;trebuchet ms&quot;, verdana, arial;; font-size: 12px" transform="translate(51.46875,37.5)">API-GATEWAY</text></g><g id="STATIC-SITE" transform="translate(420.4765625,2820 )"><rect fill="honeydew" fill-opacity="100%" stroke="gray" x="0" y="0" width="100" height="75"></rect><text id="entity-STATIC-SITE" x="0" y="0" dominant-baseline="middle" text-anchor="middle" style="font-family: &quot;trebuchet ms&quot;, verdana, arial;; font-size: 12px" transform="translate(50,37.5)">STATIC-SITE</text></g><g id="PWA-SPA" transform="translate(1623.21484375,2820 )"><rect fill="honeydew" fill-opacity="100%" stroke="gray" x="0" y="0" width="100" height="75"></rect><text id="entity-PWA-SPA" x="0" y="0" dominant-baseline="middle" text-anchor="middle" style="font-family: &quot;trebuchet ms&quot;, verdana, arial;; font-size: 12px" transform="translate(50,37.5)">PWA-SPA</text></g><g id="WEBSITE" transform="translate(981,2995 )"><rect fill="honeydew" fill-opacity="100%" stroke="gray" x="0" y="0" width="100" height="75"></rect><text id="entity-WEBSITE" x="0" y="0" dominant-baseline="middle" text-anchor="middle" style="font-family: &quot;trebuchet ms&quot;, verdana, arial;; font-size: 12px" transform="translate(50,37.5)">WEBSITE</text></g><rect x="955.3734130859375" y="102.09068298339844" width="34.6875" height="14.015625" fill="white" fill-opacity="85%"></rect><text id="rel49" x="972.7171630859375" y="109.09849548339844" text-anchor="middle" dominant-baseline="middle" style="font-family: &quot;trebuchet ms&quot;, verdana, arial;; font-size: 12px">HOSTS</text><rect x="682.9015502929688" y="325.60089111328125" width="34.6875" height="14.015625" fill="white" fill-opacity="85%"></rect><text id="rel50" x="700.2453002929688" y="332.60870361328125" text-anchor="middle" dominant-baseline="middle" style="font-family: &quot;trebuchet ms&quot;, verdana, arial;; font-size: 12px">HOSTS</text><rect x="251.00869750976562" y="117.03996276855469" width="34.6875" height="14.015625" fill="white" fill-opacity="85%"></rect><text id="rel51" x="268.3524475097656" y="124.04777526855469" text-anchor="middle" dominant-baseline="middle" style="font-family: &quot;trebuchet ms&quot;, verdana, arial;; font-size: 12px">HOSTS</text><rect x="1139.7880859375" y="320.38348388671875" width="69.34375" height="14.015625" fill="white" fill-opacity="85%"></rect><text id="rel52" x="1174.4599609375" y="327.39129638671875" text-anchor="middle" dominant-baseline="middle" style="font-family: &quot;trebuchet ms&quot;, verdana, arial;; font-size: 12px">is FORKED to</text><rect x="-19.273433685302734" y="755.1367797851562" width="145.375" height="14.015625" fill="white" fill-opacity="85%"></rect><text id="rel53" x="53.414066314697266" y="762.1445922851562" text-anchor="middle" dominant-baseline="middle" style="font-family: &quot;trebuchet ms&quot;, verdana, arial;; font-size: 12px">PUSH/PULL NEW FEATURES</text><rect x="507.482666015625" y="496.4953918457031" width="85.953125" height="14.015625" fill="white" fill-opacity="85%"></rect><text id="rel54" x="550.459228515625" y="503.5032043457031" text-anchor="middle" dominant-baseline="middle" style="font-family: &quot;trebuchet ms&quot;, verdana, arial;; font-size: 12px">PROJECT CYCLE</text><rect x="1049.040283203125" y="490.4393615722656" width="69.265625" height="14.015625" fill="white" fill-opacity="85%"></rect><text id="rel55" x="1083.673095703125" y="497.4471740722656" text-anchor="middle" dominant-baseline="middle" style="font-family: &quot;trebuchet ms&quot;, verdana, arial;; font-size: 12px">BUILD CYCLE</text><rect x="854.71923828125" y="656.3594360351562" width="210.15625" height="14.015625" fill="white" fill-opacity="85%"></rect><text id="rel56" x="959.79736328125" y="663.3672485351562" text-anchor="middle" dominant-baseline="middle" style="font-family: &quot;trebuchet ms&quot;, verdana, arial;; font-size: 12px">TRIGGERS BUILD/DEPLOY AUTOMATION</text><rect x="448.0565185546875" y="799.9483642578125" width="214.75" height="14.015625" fill="white" fill-opacity="85%"></rect><text id="rel57" x="555.4315185546875" y="806.9561767578125" text-anchor="middle" dominant-baseline="middle" style="font-family: &quot;trebuchet ms&quot;, verdana, arial;; font-size: 12px">push built images on BUILD CYCLE ONLY</text><rect x="1166.391357421875" y="805.2186279296875" width="98.296875" height="14.015625" fill="white" fill-opacity="85%"></rect><text id="rel58" x="1215.539794921875" y="812.2264404296875" text-anchor="middle" dominant-baseline="middle" style="font-family: &quot;trebuchet ms&quot;, verdana, arial;; font-size: 12px">Runs AUTOMATION</text><rect x="1203.01171875" y="928.353271484375" width="98.3125" height="14.015625" fill="white" fill-opacity="85%"></rect><text id="rel59" x="1252.16796875" y="935.361083984375" text-anchor="middle" dominant-baseline="middle" style="font-family: &quot;trebuchet ms&quot;, verdana, arial;; font-size: 12px">Runs AUTOMATION</text><rect x="957.73828125" y="1130.8564453125" width="98.3125" height="14.015625" fill="white" fill-opacity="85%"></rect><text id="rel60" x="1006.89453125" y="1137.8642578125" text-anchor="middle" dominant-baseline="middle" style="font-family: &quot;trebuchet ms&quot;, verdana, arial;; font-size: 12px">Runs AUTOMATION</text><rect x="857.73828125" y="1292.178955078125" width="98.3125" height="14.015625" fill="white" fill-opacity="85%"></rect><text id="rel61" x="906.89453125" y="1299.186767578125" text-anchor="middle" dominant-baseline="middle" style="font-family: &quot;trebuchet ms&quot;, verdana, arial;; font-size: 12px">Runs AUTOMATION</text><rect x="614.57421875" y="1292.179443359375" width="98.3125" height="14.015625" fill="white" fill-opacity="85%"></rect><text id="rel62" x="663.73046875" y="1299.187255859375" text-anchor="middle" dominant-baseline="middle" style="font-family: &quot;trebuchet ms&quot;, verdana, arial;; font-size: 12px">Runs AUTOMATION</text><rect x="514.57421875" y="1329.364990234375" width="98.3125" height="14.015625" fill="white" fill-opacity="85%"></rect><text id="rel63" x="563.73046875" y="1336.372802734375" text-anchor="middle" dominant-baseline="middle" style="font-family: &quot;trebuchet ms&quot;, verdana, arial;; font-size: 12px">Runs AUTOMATION</text><rect x="371.328125" y="1358.776123046875" width="98.296875" height="14.015625" fill="white" fill-opacity="85%"></rect><text id="rel64" x="420.4765625" y="1365.783935546875" text-anchor="middle" dominant-baseline="middle" style="font-family: &quot;trebuchet ms&quot;, verdana, arial;; font-size: 12px">Runs AUTOMATION</text><rect x="1574.05859375" y="1270.798828125" width="98.3125" height="14.015625" fill="white" fill-opacity="85%"></rect><text id="rel65" x="1623.21484375" y="1277.806640625" text-anchor="middle" dominant-baseline="middle" style="font-family: &quot;trebuchet ms&quot;, verdana, arial;; font-size: 12px">Runs AUTOMATION</text><rect x="148.00503540039062" y="1021.114990234375" width="146.078125" height="14.015625" fill="white" fill-opacity="85%"></rect><text id="rel66" x="221.04409790039062" y="1028.122802734375" text-anchor="middle" dominant-baseline="middle" style="font-family: &quot;trebuchet ms&quot;, verdana, arial;; font-size: 12px">Pull for Local Development</text><rect x="1307.0037841796875" y="656.6030883789062" width="194.375" height="14.015625" fill="white" fill-opacity="85%"></rect><text id="rel67" x="1404.1912841796875" y="663.6109008789062" text-anchor="middle" dominant-baseline="middle" style="font-family: &quot;trebuchet ms&quot;, verdana, arial;; font-size: 12px">DEPLOY = PUSH TO develop BRANCH</text><rect x="1027.11328125" y="1011.4849853515625" width="189.984375" height="14.015625" fill="white" fill-opacity="85%"></rect><text id="rel68" x="1122.10546875" y="1018.4927978515625" text-anchor="middle" dominant-baseline="middle" style="font-family: &quot;trebuchet ms&quot;, verdana, arial;; font-size: 12px">DEPLOY = PUSH TO staging BRANCH</text><rect x="669.16015625" y="1215.72900390625" width="189.140625" height="14.015625" fill="white" fill-opacity="85%"></rect><text id="rel69" x="763.73046875" y="1222.73681640625" text-anchor="middle" dominant-baseline="middle" style="font-family: &quot;trebuchet ms&quot;, verdana, arial;; font-size: 12px">DEPLOY = PUSH TO master BRANCH</text><rect x="1374.12109375" y="1012.9921875" width="127.140625" height="14.015625" fill="white" fill-opacity="85%"></rect><text id="rel70" x="1437.69140625" y="1020" text-anchor="middle" dominant-baseline="middle" style="font-family: &quot;trebuchet ms&quot;, verdana, arial;; font-size: 12px">DEVELOP Features With</text><rect x="1369.29833984375" y="1193.63232421875" width="115.203125" height="14.015625" fill="white" fill-opacity="85%"></rect><text id="rel71" x="1426.89990234375" y="1200.64013671875" text-anchor="middle" dominant-baseline="middle" style="font-family: &quot;trebuchet ms&quot;, verdana, arial;; font-size: 12px">Test in DEV DELIVERY</text><rect x="1273.3050537109375" y="1376.2630615234375" width="102.765625" height="14.015625" fill="white" fill-opacity="85%"></rect><text id="rel72" x="1324.6878662109375" y="1383.2708740234375" text-anchor="middle" dominant-baseline="middle" style="font-family: &quot;trebuchet ms&quot;, verdana, arial;; font-size: 12px">PROMOTE FEATURE</text><rect x="1141.44921875" y="1537.9921875" width="106.15625" height="14.015625" fill="white" fill-opacity="85%"></rect><text id="rel73" x="1194.52734375" y="1545" text-anchor="middle" dominant-baseline="middle" style="font-family: &quot;trebuchet ms&quot;, verdana, arial;; font-size: 12px">TEST Features With</text><rect x="1097.204345703125" y="1724.0479736328125" width="146.703125" height="14.015625" fill="white" fill-opacity="85%"></rect><text id="rel74" x="1170.555908203125" y="1731.0557861328125" text-anchor="middle" dominant-baseline="middle" style="font-family: &quot;trebuchet ms&quot;, verdana, arial;; font-size: 12px">Finalize in STAGE DELIVERY</text><rect x="923.7577514648438" y="1913.982666015625" width="92.484375" height="14.015625" fill="white" fill-opacity="85%"></rect><text id="rel75" x="969.9999389648438" y="1920.990478515625" text-anchor="middle" dominant-baseline="middle" style="font-family: &quot;trebuchet ms&quot;, verdana, arial;; font-size: 12px">DEPLOY FEATURE</text><rect x="719.4774780273438" y="2072.829833984375" width="99" height="14.015625" fill="white" fill-opacity="85%"></rect><text id="rel76" x="768.9774780273438" y="2079.837646484375" text-anchor="middle" dominant-baseline="middle" style="font-family: &quot;trebuchet ms&quot;, verdana, arial;; font-size: 12px">USE Features With</text><rect x="616.50390625" y="2244.74609375" width="68.578125" height="14.015625" fill="white" fill-opacity="85%"></rect><text id="rel77" x="650.79296875" y="2251.75390625" text-anchor="middle" dominant-baseline="middle" style="font-family: &quot;trebuchet ms&quot;, verdana, arial;; font-size: 12px">DEPLOY LIVE</text><rect x="1204.1878662109375" y="2199.072265625" width="68.578125" height="14.015625" fill="white" fill-opacity="85%"></rect><text id="rel78" x="1238.4769287109375" y="2206.080078125" text-anchor="middle" dominant-baseline="middle" style="font-family: &quot;trebuchet ms&quot;, verdana, arial;; font-size: 12px">DEPLOY LIVE</text><rect x="791.7664794921875" y="2388.372802734375" width="54.40625" height="14.015625" fill="white" fill-opacity="85%"></rect><text id="rel79" x="818.9696044921875" y="2395.380615234375" text-anchor="middle" dominant-baseline="middle" style="font-family: &quot;trebuchet ms&quot;, verdana, arial;; font-size: 12px">IP address</text><rect x="1333.8626708984375" y="2445.721435546875" width="54.40625" height="14.015625" fill="white" fill-opacity="85%"></rect><text id="rel80" x="1361.0657958984375" y="2452.729248046875" text-anchor="middle" dominant-baseline="middle" style="font-family: &quot;trebuchet ms&quot;, verdana, arial;; font-size: 12px">IP address</text><rect x="311.3779296875" y="2400.852294921875" width="264.53125" height="14.015625" fill="white" fill-opacity="85%"></rect><text id="rel81" x="443.6435546875" y="2407.860107421875" text-anchor="middle" dominant-baseline="middle" style="font-family: &quot;trebuchet ms&quot;, verdana, arial;; font-size: 12px">Moves NodeJS PWA-SPA/Static-Site Assets to CDN</text><rect x="344.5222473144531" y="2595.884521484375" width="173.421875" height="14.015625" fill="white" fill-opacity="85%"></rect><text id="rel82" x="431.2331848144531" y="2602.892333984375" text-anchor="middle" dominant-baseline="middle" style="font-family: &quot;trebuchet ms&quot;, verdana, arial;; font-size: 12px">ROUTE to PWA-SPA/Static assets</text><rect x="1146.8509521484375" y="2374.861083984375" width="61.546875" height="14.015625" fill="white" fill-opacity="85%"></rect><text id="rel83" x="1177.6243896484375" y="2381.868896484375" text-anchor="middle" dominant-baseline="middle" style="font-family: &quot;trebuchet ms&quot;, verdana, arial;; font-size: 12px">RevProx/LB</text><rect x="1677.716552734375" y="2406.875244140625" width="157.71875" height="14.015625" fill="white" fill-opacity="85%"></rect><text id="rel84" x="1756.575927734375" y="2413.883056640625" text-anchor="middle" dominant-baseline="middle" style="font-family: &quot;trebuchet ms&quot;, verdana, arial;; font-size: 12px">Reverse Proxy/Load Balancer</text><rect x="776.3992309570312" y="2623.917724609375" width="73.984375" height="14.015625" fill="white" fill-opacity="85%"></rect><text id="rel85" x="813.3914184570312" y="2630.925537109375" text-anchor="middle" dominant-baseline="middle" style="font-family: &quot;trebuchet ms&quot;, verdana, arial;; font-size: 12px">Assets Served</text><rect x="438.15887451171875" y="2760.544921875" width="75.625" height="14.015625" fill="white" fill-opacity="85%"></rect><text id="rel86" x="475.97137451171875" y="2767.552734375" text-anchor="middle" dominant-baseline="middle" style="font-family: &quot;trebuchet ms&quot;, verdana, arial;; font-size: 12px">Site Delivered</text><rect x="1045.4566650390625" y="2725.333740234375" width="119.46875" height="14.015625" fill="white" fill-opacity="85%"></rect><text id="rel87" x="1105.1910400390625" y="2732.341552734375" text-anchor="middle" dominant-baseline="middle" style="font-family: &quot;trebuchet ms&quot;, verdana, arial;; font-size: 12px">Application Initialized</text><rect x="1664.2515869140625" y="2678.20166015625" width="117.921875" height="14.015625" fill="white" fill-opacity="85%"></rect><text id="rel88" x="1723.2125244140625" y="2685.20947265625" text-anchor="middle" dominant-baseline="middle" style="font-family: &quot;trebuchet ms&quot;, verdana, arial;; font-size: 12px">Dynamic Data Served!</text><rect x="699.8327026367188" y="2974.610595703125" width="26.609375" height="14.015625" fill="white" fill-opacity="85%"></rect><text id="rel89" x="713.1373901367188" y="2981.618408203125" text-anchor="middle" dominant-baseline="middle" style="font-family: &quot;trebuchet ms&quot;, verdana, arial;; font-size: 12px">Final</text><rect x="1375.8162841796875" y="2975.4775390625" width="26.609375" height="14.015625" fill="white" fill-opacity="85%"></rect><text id="rel90" x="1389.1209716796875" y="2982.4853515625" text-anchor="middle" dominant-baseline="middle" style="font-family: &quot;trebuchet ms&quot;, verdana, arial;; font-size: 12px">Final</text></svg>